<mxfile host="65bd71144e">
    <diagram id="fLh_ZRpRpivqrNP2prxu" name="ページ1">
        <mxGraphModel dx="1190" dy="2107" grid="1" gridSize="10" guides="1" tooltips="1" connect="1" arrows="1" fold="1" page="1" pageScale="1" pageWidth="827" pageHeight="1169" math="0" shadow="0">
            <root>
                <mxCell id="0"/>
                <mxCell id="1" parent="0"/>
                <mxCell id="51" value="工程内チェックシートアプリケーション" style="rounded=0;whiteSpace=wrap;html=1;fillColor=none;verticalAlign=top;" parent="1" vertex="1">
                    <mxGeometry x="180" y="90" width="600" height="450" as="geometry"/>
                </mxCell>
                <mxCell id="43" value="検査担当者" style="shape=umlActor;verticalLabelPosition=bottom;verticalAlign=top;html=1;outlineConnect=0;fillColor=none;" parent="1" vertex="1">
                    <mxGeometry x="80" y="310" width="30" height="60" as="geometry"/>
                </mxCell>
                <mxCell id="46" value="工程担当者のマスタを管理する" style="ellipse;whiteSpace=wrap;html=1;fillColor=none;" parent="1" vertex="1">
                    <mxGeometry x="240" y="150" width="200" height="80" as="geometry"/>
                </mxCell>
                <mxCell id="47" value="工程に対して複数人割り当てる" style="ellipse;whiteSpace=wrap;html=1;fillColor=none;" parent="1" vertex="1">
                    <mxGeometry x="510" y="150" width="200" height="80" as="geometry"/>
                </mxCell>
                <mxCell id="48" value="工程確認者のマスタを管理する" style="ellipse;whiteSpace=wrap;html=1;fillColor=none;" parent="1" vertex="1">
                    <mxGeometry x="250" y="280" width="200" height="80" as="geometry"/>
                </mxCell>
                <mxCell id="49" value="" style="endArrow=none;html=1;entryX=1;entryY=0.3333333333333333;entryDx=0;entryDy=0;entryPerimeter=0;exitX=0;exitY=0.5;exitDx=0;exitDy=0;" parent="1" source="46" target="43" edge="1">
                    <mxGeometry width="50" height="50" relative="1" as="geometry">
                        <mxPoint x="430" y="290" as="sourcePoint"/>
                        <mxPoint x="480" y="240" as="targetPoint"/>
                    </mxGeometry>
                </mxCell>
                <mxCell id="50" value="" style="endArrow=none;html=1;exitX=0;exitY=0.5;exitDx=0;exitDy=0;entryX=1;entryY=1;entryDx=0;entryDy=0;entryPerimeter=0;" parent="1" source="48" target="43" edge="1">
                    <mxGeometry width="50" height="50" relative="1" as="geometry">
                        <mxPoint x="250" y="199.9999999999999" as="sourcePoint"/>
                        <mxPoint x="110" y="140" as="targetPoint"/>
                    </mxGeometry>
                </mxCell>
                <mxCell id="53" value="Extends" style="endArrow=block;endSize=16;endFill=0;html=1;exitX=0;exitY=0.5;exitDx=0;exitDy=0;entryX=1;entryY=0.5;entryDx=0;entryDy=0;" parent="1" source="47" target="46" edge="1">
                    <mxGeometry width="160" relative="1" as="geometry">
                        <mxPoint x="370" y="260" as="sourcePoint"/>
                        <mxPoint x="530" y="260" as="targetPoint"/>
                    </mxGeometry>
                </mxCell>
                <mxCell id="54" value="どのように割り当てたい？&lt;br&gt;・工程ごとに複数人候補者を登録して、選択するようにする？&lt;br&gt;・割りあててはどの単位ですればいい？制作番号毎に変えたい？&lt;br&gt;　例：チェックシート作成時にリストから初期値としてセットされる人を&lt;br&gt;　変更する。&lt;br&gt;・毎回工程担当者が選択できるようにしたほうがいい？&lt;br&gt;　その他で社員番号検索可能にする。" style="shape=note;whiteSpace=wrap;html=1;backgroundOutline=1;darkOpacity=0.05;fillColor=#fff2cc;strokeColor=#d6b656;align=left;" parent="1" vertex="1">
                    <mxGeometry x="350" y="-100" width="410" height="130" as="geometry"/>
                </mxCell>
                <mxCell id="56" value="" style="endArrow=none;dashed=1;html=1;entryX=0.5;entryY=1;entryDx=0;entryDy=0;entryPerimeter=0;exitX=1;exitY=0;exitDx=0;exitDy=0;" parent="1" source="46" target="54" edge="1">
                    <mxGeometry width="50" height="50" relative="1" as="geometry">
                        <mxPoint x="430" y="260" as="sourcePoint"/>
                        <mxPoint x="480" y="210" as="targetPoint"/>
                    </mxGeometry>
                </mxCell>
                <mxCell id="59" value="検査承認者" style="shape=umlActor;verticalLabelPosition=bottom;verticalAlign=top;html=1;outlineConnect=0;fillColor=none;" vertex="1" parent="1">
                    <mxGeometry x="80" y="467" width="30" height="60" as="geometry"/>
                </mxCell>
                <mxCell id="60" value="" style="endArrow=none;html=1;entryX=1;entryY=0.3333333333333333;entryDx=0;entryDy=0;entryPerimeter=0;exitX=0;exitY=1;exitDx=0;exitDy=0;" edge="1" parent="1" source="46" target="59">
                    <mxGeometry width="50" height="50" relative="1" as="geometry">
                        <mxPoint x="250" y="200" as="sourcePoint"/>
                        <mxPoint x="120.00000000000011" y="140" as="targetPoint"/>
                    </mxGeometry>
                </mxCell>
                <mxCell id="61" value="" style="endArrow=none;html=1;exitX=0;exitY=1;exitDx=0;exitDy=0;entryX=1;entryY=0.3333333333333333;entryDx=0;entryDy=0;entryPerimeter=0;" edge="1" parent="1" source="48" target="59">
                    <mxGeometry width="50" height="50" relative="1" as="geometry">
                        <mxPoint x="260" y="330" as="sourcePoint"/>
                        <mxPoint x="120.00000000000011" y="180" as="targetPoint"/>
                    </mxGeometry>
                </mxCell>
                <mxCell id="62" value="検査担当者、承認者のマスタ&lt;br&gt;を管理する" style="ellipse;whiteSpace=wrap;html=1;fillColor=none;" vertex="1" parent="1">
                    <mxGeometry x="251" y="404" width="200" height="80" as="geometry"/>
                </mxCell>
                <mxCell id="63" value="" style="endArrow=none;html=1;exitX=0;exitY=0;exitDx=0;exitDy=0;entryX=0;entryY=1;entryDx=0;entryDy=0;entryPerimeter=0;" edge="1" parent="1" source="62" target="43">
                    <mxGeometry width="50" height="50" relative="1" as="geometry">
                        <mxPoint x="260" y="330" as="sourcePoint"/>
                        <mxPoint x="120.00000000000011" y="180" as="targetPoint"/>
                    </mxGeometry>
                </mxCell>
                <mxCell id="64" value="" style="endArrow=none;html=1;entryX=1;entryY=1;entryDx=0;entryDy=0;entryPerimeter=0;exitX=0;exitY=0.5;exitDx=0;exitDy=0;" edge="1" parent="1" source="62" target="59">
                    <mxGeometry width="50" height="50" relative="1" as="geometry">
                        <mxPoint x="268.0000000000009" y="454" as="sourcePoint"/>
                        <mxPoint x="90.00000000000011" y="180" as="targetPoint"/>
                    </mxGeometry>
                </mxCell>
                <mxCell id="65" value="工長" style="shape=umlActor;verticalLabelPosition=bottom;verticalAlign=top;html=1;outlineConnect=0;fillColor=none;" vertex="1" parent="1">
                    <mxGeometry x="80" y="209" width="30" height="60" as="geometry"/>
                </mxCell>
                <mxCell id="67" value="チェックシート登録者" style="shape=umlActor;verticalLabelPosition=bottom;verticalAlign=top;html=1;outlineConnect=0;fillColor=none;" vertex="1" parent="1">
                    <mxGeometry x="79" y="84" width="30" height="60" as="geometry"/>
                </mxCell>
                <mxCell id="68" value="" style="endArrow=none;html=1;entryX=1;entryY=1;entryDx=0;entryDy=0;entryPerimeter=0;" edge="1" parent="1" source="48" target="65">
                    <mxGeometry width="50" height="50" relative="1" as="geometry">
                        <mxPoint x="250" y="200" as="sourcePoint"/>
                        <mxPoint x="120.00000000000011" y="140" as="targetPoint"/>
                    </mxGeometry>
                </mxCell>
                <mxCell id="72" value="" style="endArrow=none;html=1;entryX=1;entryY=0.3333333333333333;entryDx=0;entryDy=0;entryPerimeter=0;exitX=0;exitY=0;exitDx=0;exitDy=0;" edge="1" parent="1" source="46" target="65">
                    <mxGeometry width="50" height="50" relative="1" as="geometry">
                        <mxPoint x="292.73272060036857" y="300.4023970641624" as="sourcePoint"/>
                        <mxPoint x="110" y="220" as="targetPoint"/>
                    </mxGeometry>
                </mxCell>
                <mxCell id="74" value="" style="endArrow=none;html=1;entryX=1;entryY=0.3333333333333333;entryDx=0;entryDy=0;entryPerimeter=0;exitX=0.5;exitY=0;exitDx=0;exitDy=0;" edge="1" parent="1" source="46" target="67">
                    <mxGeometry width="50" height="50" relative="1" as="geometry">
                        <mxPoint x="279.28932188134513" y="171.71572875253787" as="sourcePoint"/>
                        <mxPoint x="120" y="239" as="targetPoint"/>
                    </mxGeometry>
                </mxCell>
                <mxCell id="75" value="" style="endArrow=none;html=1;exitX=0;exitY=0;exitDx=0;exitDy=0;entryX=1;entryY=1;entryDx=0;entryDy=0;entryPerimeter=0;" edge="1" parent="1" source="48" target="67">
                    <mxGeometry width="50" height="50" relative="1" as="geometry">
                        <mxPoint x="350" y="160" as="sourcePoint"/>
                        <mxPoint x="110" y="110" as="targetPoint"/>
                    </mxGeometry>
                </mxCell>
            </root>
        </mxGraphModel>
    </diagram>
</mxfile>